<mxfile host="65bd71144e">
    <diagram id="AYX6F2clZy3dBOm1hjf8" name="Page-1">
        <mxGraphModel dx="846" dy="647" grid="1" gridSize="10" guides="1" tooltips="1" connect="1" arrows="1" fold="1" page="1" pageScale="1" pageWidth="827" pageHeight="1169" math="0" shadow="0">
            <root>
                <mxCell id="0"/>
                <mxCell id="1" parent="0"/>
                <mxCell id="2" value="Inicio" style="html=1;dashed=0;whiteSpace=wrap;shape=mxgraph.dfd.start" vertex="1" parent="1">
                    <mxGeometry x="430" y="130" width="100" height="60" as="geometry"/>
                </mxCell>
                <mxCell id="5" value="" style="endArrow=classic;html=1;" edge="1" parent="1" target="6">
                    <mxGeometry width="50" height="50" relative="1" as="geometry">
                        <mxPoint x="459.5" y="320" as="sourcePoint"/>
                        <mxPoint x="460" y="380" as="targetPoint"/>
                    </mxGeometry>
                </mxCell>
                <mxCell id="6" value="¿Hay capsula?" style="shape=rhombus;html=1;dashed=0;whiteSpace=wrap;perimeter=rhombusPerimeter;" vertex="1" parent="1">
                    <mxGeometry x="330" y="420" width="100" height="70" as="geometry"/>
                </mxCell>
                <mxCell id="8" value="" style="endArrow=classic;html=1;" edge="1" parent="1">
                    <mxGeometry width="50" height="50" relative="1" as="geometry">
                        <mxPoint x="430" y="460" as="sourcePoint"/>
                        <mxPoint x="470" y="490" as="targetPoint"/>
                    </mxGeometry>
                </mxCell>
                <mxCell id="9" value="" style="endArrow=classic;html=1;" edge="1" parent="1">
                    <mxGeometry width="50" height="50" relative="1" as="geometry">
                        <mxPoint x="330" y="460" as="sourcePoint"/>
                        <mxPoint x="300" y="490" as="targetPoint"/>
                    </mxGeometry>
                </mxCell>
                <mxCell id="10" value="Sí" style="text;html=1;align=center;verticalAlign=middle;resizable=0;points=[];autosize=1;strokeColor=none;fillColor=none;" vertex="1" parent="1">
                    <mxGeometry x="290" y="448" width="30" height="30" as="geometry"/>
                </mxCell>
                <mxCell id="11" value="No" style="text;html=1;align=center;verticalAlign=middle;resizable=0;points=[];autosize=1;strokeColor=none;fillColor=none;" vertex="1" parent="1">
                    <mxGeometry x="440" y="448" width="40" height="30" as="geometry"/>
                </mxCell>
                <mxCell id="23" style="edgeStyle=none;html=1;exitX=0.5;exitY=1;exitDx=0;exitDy=0;" edge="1" parent="1" source="12">
                    <mxGeometry relative="1" as="geometry">
                        <mxPoint x="265" y="570" as="targetPoint"/>
                    </mxGeometry>
                </mxCell>
                <mxCell id="12" value="Cafetera en funcion&lt;span style=&quot;font-family: monospace; font-size: 0px; text-align: start; text-wrap-mode: nowrap;&quot;&gt;%3CmxGraphModel%3E%3Croot%3E%3CmxCell%20id%3D%220%22%2F%3E%3CmxCell%20id%3D%221%22%20parent%3D%220%22%2F%3E%3CmxCell%20id%3D%222%22%20value%3D%22%22%20style%3D%22endArrow%3Dclassic%3Bhtml%3D1%3B%22%20edge%3D%221%22%20parent%3D%221%22%3E%3CmxGeometry%20width%3D%2250%22%20height%3D%2250%22%20relative%3D%221%22%20as%3D%22geometry%22%3E%3CmxPoint%20x%3D%22430%22%20y%3D%22460%22%20as%3D%22sourcePoint%22%2F%3E%3CmxPoint%20x%3D%22500%22%20y%3D%22510%22%20as%3D%22targetPoint%22%2F%3E%3C%2FmxGeometry%3E%3C%2FmxCell%3E%3C%2Froot%3E%3C%2FmxGraphModel%3E&lt;/span&gt;amiento" style="html=1;dashed=0;whiteSpace=wrap;" vertex="1" parent="1">
                    <mxGeometry x="220" y="490" width="90" height="40" as="geometry"/>
                </mxCell>
                <mxCell id="13" value="¿Hay agua?" style="shape=rhombus;html=1;dashed=0;whiteSpace=wrap;perimeter=rhombusPerimeter;" vertex="1" parent="1">
                    <mxGeometry x="440" y="270" width="80" height="70" as="geometry"/>
                </mxCell>
                <mxCell id="14" value="Cafetera se detiene&lt;span style=&quot;font-family: monospace; font-size: 0px; text-align: start; text-wrap-mode: nowrap;&quot;&gt;%3CmxGraphModel%3E%3Croot%3E%3CmxCell%20id%3D%220%22%2F%3E%3CmxCell%20id%3D%221%22%20parent%3D%220%22%2F%3E%3CmxCell%20id%3D%222%22%20value%3D%22%22%20style%3D%22endArrow%3Dclassic%3Bhtml%3D1%3B%22%20edge%3D%221%22%20parent%3D%221%22%3E%3CmxGeometry%20width%3D%2250%22%20height%3D%2250%22%20relative%3D%221%22%20as%3D%22geometry%22%3E%3CmxPoint%20x%3D%22430%22%20y%3D%22460%22%20as%3D%22sourcePoint%22%2F%3E%3CmxPoint%20x%3D%22500%22%20y%3D%22510%22%20as%3D%22targetPoint%22%2F%3E%3C%2FmxGeometry%3E%3C%2FmxCell%3E%3C%2Froot%3E%3C%2FmxGraphMo&lt;/span&gt;" style="html=1;dashed=0;whiteSpace=wrap;" vertex="1" parent="1">
                    <mxGeometry x="460" y="490" width="90" height="40" as="geometry"/>
                </mxCell>
                <mxCell id="16" value="Si" style="text;html=1;align=center;verticalAlign=middle;resizable=0;points=[];autosize=1;strokeColor=none;fillColor=none;" vertex="1" parent="1">
                    <mxGeometry x="400" y="340" width="30" height="30" as="geometry"/>
                </mxCell>
                <mxCell id="17" value="" style="endArrow=classic;html=1;" edge="1" parent="1">
                    <mxGeometry width="50" height="50" relative="1" as="geometry">
                        <mxPoint x="505" y="318" as="sourcePoint"/>
                        <mxPoint x="575" y="380" as="targetPoint"/>
                    </mxGeometry>
                </mxCell>
                <mxCell id="20" value="No" style="text;html=1;align=center;verticalAlign=middle;resizable=0;points=[];autosize=1;strokeColor=none;fillColor=none;" vertex="1" parent="1">
                    <mxGeometry x="520" y="318" width="40" height="30" as="geometry"/>
                </mxCell>
                <mxCell id="21" value="" style="endArrow=classic;html=1;entryX=0.5;entryY=0;entryDx=0;entryDy=0;" edge="1" parent="1" target="13">
                    <mxGeometry width="50" height="50" relative="1" as="geometry">
                        <mxPoint x="479" y="190" as="sourcePoint"/>
                        <mxPoint x="479" y="250" as="targetPoint"/>
                    </mxGeometry>
                </mxCell>
                <mxCell id="24" value="Cafetera inicia a echar el café" style="html=1;dashed=0;whiteSpace=wrap;" vertex="1" parent="1">
                    <mxGeometry x="220" y="570" width="90" height="40" as="geometry"/>
                </mxCell>
                <mxCell id="25" value="" style="endArrow=classic;html=1;" edge="1" parent="1">
                    <mxGeometry width="50" height="50" relative="1" as="geometry">
                        <mxPoint x="264.5" y="610" as="sourcePoint"/>
                        <mxPoint x="264.5" y="650" as="targetPoint"/>
                    </mxGeometry>
                </mxCell>
                <mxCell id="26" value="Cafetera termina de echar el café" style="html=1;dashed=0;whiteSpace=wrap;" vertex="1" parent="1">
                    <mxGeometry x="205" y="650" width="120" height="40" as="geometry"/>
                </mxCell>
                <mxCell id="30" value="Cafetera se detiene" style="html=1;dashed=0;whiteSpace=wrap;shape=mxgraph.dfd.start" vertex="1" parent="1">
                    <mxGeometry x="50" y="640" width="100" height="50" as="geometry"/>
                </mxCell>
                <mxCell id="31" value="Cafetera se detiene" style="html=1;dashed=0;whiteSpace=wrap;shape=mxgraph.dfd.start" vertex="1" parent="1">
                    <mxGeometry x="570" y="380" width="100" height="50" as="geometry"/>
                </mxCell>
                <mxCell id="32" value="" style="endArrow=classic;html=1;entryX=0;entryY=0;entryDx=91.21000000000001;entryDy=51.209999999999994;entryPerimeter=0;" edge="1" parent="1" target="2">
                    <mxGeometry width="50" height="50" relative="1" as="geometry">
                        <mxPoint x="630" y="380" as="sourcePoint"/>
                        <mxPoint x="680" y="330" as="targetPoint"/>
                    </mxGeometry>
                </mxCell>
                <mxCell id="33" value="" style="endArrow=classic;html=1;" edge="1" parent="1">
                    <mxGeometry width="50" height="50" relative="1" as="geometry">
                        <mxPoint x="205" y="669.5" as="sourcePoint"/>
                        <mxPoint x="150" y="670" as="targetPoint"/>
                    </mxGeometry>
                </mxCell>
                <mxCell id="34" value="" style="endArrow=classic;html=1;entryX=0;entryY=0.667;entryDx=0;entryDy=0;entryPerimeter=0;" edge="1" parent="1" target="2">
                    <mxGeometry width="50" height="50" relative="1" as="geometry">
                        <mxPoint x="90" y="640" as="sourcePoint"/>
                        <mxPoint x="140" y="590" as="targetPoint"/>
                    </mxGeometry>
                </mxCell>
                <mxCell id="35" value="" style="endArrow=classic;html=1;entryX=0.5;entryY=1;entryDx=0;entryDy=0;" edge="1" parent="1" target="13">
                    <mxGeometry width="50" height="50" relative="1" as="geometry">
                        <mxPoint x="500" y="490" as="sourcePoint"/>
                        <mxPoint x="550" y="440" as="targetPoint"/>
                    </mxGeometry>
                </mxCell>
            </root>
        </mxGraphModel>
    </diagram>
</mxfile>